<svg width="192" height="35" viewBox="0 0 192 35" fill="none" xmlns="http://www.w3.org/2000/svg">
<g clip-path="url(#clip0_73_8)">
<path fill-rule="evenodd" clip-rule="evenodd" d="M182.063 31.5L183.628 27.7879H182.398L181.281 31.5H182.063ZM181.393 33.303C181.728 32.9848 181.84 32.6667 181.728 32.4545C181.616 32.2424 181.169 32.2424 180.945 32.4545C180.61 32.6667 180.498 32.9848 180.61 33.303C180.722 33.5151 181.169 33.5151 181.393 33.303ZM177.033 33.4091C177.704 33.4091 178.263 33.303 178.934 32.8788C179.492 32.4545 179.828 31.9242 180.051 31.3939C180.275 30.7576 180.275 30.3333 179.939 29.9091C179.716 29.4848 179.157 29.2727 178.598 29.2727C177.928 29.2727 177.257 29.4848 176.698 29.9091C176.139 30.3333 175.692 30.7576 175.469 31.3939C175.357 31.9242 175.357 32.4545 175.58 32.8788C175.916 33.303 176.363 33.4091 177.033 33.4091ZM177.369 32.6667C176.922 32.6667 176.698 32.5606 176.475 32.3485C176.363 32.0303 176.251 31.7121 176.475 31.3939C176.586 30.9697 176.81 30.6515 177.145 30.4394C177.481 30.2273 177.928 30.1212 178.263 30.1212C178.71 30.1212 178.934 30.2273 179.045 30.4394C179.269 30.6515 179.269 30.9697 179.157 31.3939C179.045 31.7121 178.822 32.0303 178.375 32.3485C178.039 32.5606 177.704 32.6667 177.369 32.6667ZM172.898 33.303L174.016 30.2273H175.469L175.692 29.3788H172.004L171.78 30.2273H173.121L172.004 33.303H172.898ZM168.539 33.4091C169.098 33.4091 169.545 33.303 169.992 33.0909L170.327 32.3485C169.88 32.5606 169.433 32.6667 168.986 32.6667C168.539 32.6667 168.315 32.5606 168.092 32.3485C167.868 32.0303 167.868 31.7121 167.98 31.3939C168.204 30.9697 168.427 30.6515 168.762 30.4394C169.098 30.2273 169.545 30.1212 169.992 30.1212C170.327 30.1212 170.663 30.1212 170.998 30.3333L171.221 29.5909C170.998 29.3788 170.551 29.2727 170.104 29.2727C169.433 29.2727 168.874 29.4848 168.315 29.9091C167.757 30.2273 167.309 30.7576 167.086 31.3939C166.862 32.0303 166.974 32.4545 167.198 32.8788C167.533 33.303 167.98 33.4091 168.539 33.4091ZM163.397 33.4091C164.068 33.4091 164.627 33.303 165.186 32.8788C165.745 32.4545 166.192 31.9242 166.415 31.3939C166.639 30.7576 166.527 30.3333 166.304 29.9091C165.968 29.4848 165.521 29.2727 164.85 29.2727C164.18 29.2727 163.621 29.4848 163.062 29.9091C162.503 30.3333 162.056 30.7576 161.833 31.3939C161.609 31.9242 161.721 32.4545 161.944 32.8788C162.28 33.303 162.727 33.4091 163.397 33.4091ZM163.621 32.6667C163.286 32.6667 162.95 32.5606 162.839 32.3485C162.615 32.0303 162.615 31.7121 162.727 31.3939C162.95 30.9697 163.174 30.6515 163.509 30.4394C163.845 30.2273 164.18 30.1212 164.627 30.1212C164.962 30.1212 165.298 30.2273 165.409 30.4394C165.633 30.6515 165.633 30.9697 165.521 31.3939C165.298 31.7121 165.074 32.0303 164.739 32.3485C164.403 32.5606 164.068 32.6667 163.621 32.6667ZM159.374 30.1212C159.709 30.1212 160.044 30.2273 160.156 30.4394C160.38 30.7576 160.38 30.9697 160.268 31.3939C160.044 31.7121 159.821 32.0303 159.486 32.3485C159.15 32.5606 158.815 32.6667 158.48 32.6667C157.921 32.6667 157.585 32.3485 157.474 32.0303L157.921 30.7576C158.256 30.3333 158.815 30.1212 159.374 30.1212ZM159.933 29.2727C159.262 29.2727 158.703 29.4848 158.144 29.9091L158.368 29.3788H157.474L155.462 34.8939H156.356L157.138 32.7727C157.362 33.197 157.809 33.4091 158.368 33.4091C158.927 33.4091 159.486 33.303 160.044 32.8788C160.603 32.4545 160.939 31.9242 161.162 31.3939C161.386 30.7576 161.386 30.3333 161.162 29.9091C160.939 29.4848 160.491 29.2727 159.933 29.2727ZM151.773 33.303L153.003 30.2273H155.015L153.897 33.303H154.791L156.132 29.3788H152.332L150.879 33.303H151.773ZM147.861 31.5L148.197 30.7576H143.502L143.167 31.5H147.861ZM136.908 30.9697C137.131 30.4394 137.69 30.0151 138.361 30.0151C138.696 30.0151 138.92 30.1212 139.032 30.3333C139.143 30.5454 139.143 30.7576 139.143 30.9697H136.908ZM135.79 31.3939C135.567 32.0303 135.567 32.4545 135.902 32.8788C136.237 33.303 136.684 33.4091 137.355 33.4091C137.914 33.4091 138.473 33.303 139.032 33.0909L139.255 32.3485C138.808 32.5606 138.249 32.6667 137.802 32.6667C136.908 32.6667 136.461 32.3485 136.573 31.6061H139.814L139.926 31.3939C140.149 30.6515 140.149 30.0151 139.59 29.5909C139.367 29.3788 139.143 29.2727 138.696 29.2727C138.026 29.2727 137.467 29.4848 136.908 29.9091C136.349 30.3333 136.014 30.7576 135.79 31.3939ZM132.102 33.4091C132.772 33.4091 133.331 33.303 133.89 32.8788C134.449 32.4545 134.896 31.9242 135.12 31.3939C135.343 30.7576 135.231 30.3333 135.008 29.9091C134.673 29.4848 134.225 29.2727 133.555 29.2727C132.884 29.2727 132.325 29.4848 131.766 29.9091C131.208 30.3333 130.761 30.7576 130.537 31.3939C130.313 31.9242 130.425 32.4545 130.649 32.8788C130.984 33.303 131.431 33.4091 132.102 33.4091ZM132.325 32.6667C131.99 32.6667 131.655 32.5606 131.543 32.3485C131.319 32.0303 131.319 31.7121 131.431 31.3939C131.543 30.9697 131.878 30.6515 132.214 30.4394C132.549 30.2273 132.884 30.1212 133.331 30.1212C133.667 30.1212 134.002 30.2273 134.114 30.4394C134.337 30.6515 134.337 30.9697 134.225 31.3939C134.002 31.7121 133.778 32.0303 133.443 32.3485C133.108 32.5606 132.772 32.6667 132.325 32.6667ZM125.843 33.303L126.401 31.7121H128.525L127.966 33.303H128.86L130.313 29.3788H129.308L128.749 30.9697H126.737L127.296 29.3788H126.401L124.948 33.303H125.843ZM121.819 31.3939H122.937C123.384 31.3939 123.607 31.6061 123.495 32.0303C123.384 32.3485 122.937 32.6667 122.378 32.6667H121.372L121.819 31.3939ZM122.266 33.303C122.825 33.303 123.272 33.197 123.607 32.9848C124.054 32.6667 124.278 32.3485 124.39 32.0303C124.725 31.1818 124.278 30.6515 123.272 30.6515H122.042L122.49 29.3788H121.595L120.142 33.303H122.266ZM119.136 30.2273L117.907 33.303H118.913L120.254 29.3788H116.901L116.454 30.6515C115.895 32.0303 115.56 32.5606 114.889 32.5606H114.777L114.442 33.303C114.554 33.303 114.666 33.4091 114.777 33.4091C115.56 33.303 116.119 32.8788 116.566 32.2424C116.901 31.7121 117.125 31.2879 117.348 30.7576L117.572 30.2273H119.136ZM112.989 32.2424C112.654 32.4545 112.095 32.6667 111.648 32.6667C111.089 32.6667 110.754 32.4545 110.977 32.1364C111.089 31.7121 111.536 31.5 112.095 31.5C112.542 31.5 112.877 31.6061 113.101 31.7121L112.989 32.2424ZM114.107 32.6667C113.883 32.6667 113.771 32.5606 113.883 32.2424L114.33 30.8636C114.777 29.9091 114.219 29.2727 112.989 29.2727C112.43 29.2727 111.871 29.3788 111.424 29.697L111.089 30.4394C111.648 30.2273 112.095 30.0151 112.542 30.0151C113.324 30.0151 113.66 30.3333 113.436 30.9697L113.324 31.1818C113.101 30.9697 112.654 30.8636 112.207 30.8636C111.648 30.8636 111.313 30.9697 110.865 31.1818C110.418 31.3939 110.195 31.7121 109.971 32.1364C109.859 32.5606 109.859 32.8788 110.083 33.0909C110.307 33.303 110.642 33.4091 111.089 33.4091C111.76 33.4091 112.318 33.303 112.877 32.8788C112.766 33.197 112.989 33.4091 113.548 33.4091C113.771 33.4091 113.883 33.4091 114.107 33.303L114.33 32.6667C114.219 32.6667 114.107 32.6667 114.107 32.6667ZM104.942 35C105.612 35 106.283 34.5758 106.953 33.7273L110.53 29.3788H109.524L107.289 32.1364L107.065 29.3788H106.059L106.506 33.197C105.948 33.9394 105.5 34.2576 105.053 34.2576C104.83 34.2576 104.718 34.1515 104.495 34.0455L104.271 34.8939C104.383 34.8939 104.606 35 104.942 35ZM100.806 32.5606C101.365 32.0303 101.812 31.1818 102.147 30.2273H103.712L102.818 32.5606H100.806ZM99.5766 34.4697L99.9119 33.303H103.377L102.93 34.4697H103.824L104.495 32.5606H103.824L104.942 29.3788H101.588C101.253 30.3333 101.03 30.9697 100.806 31.3939C100.471 31.9242 100.247 32.2424 99.9119 32.5606H99.3531L98.6825 34.4697H99.5766ZM95.1058 33.303L98.3471 30.6515L97.3412 33.303H98.2354L99.6884 29.3788H98.7942L95.6647 32.1364L96.5588 29.3788H95.6647L94.2116 33.303H95.1058ZM91.4174 30.1212H92.5351C92.9822 30.1212 93.0939 30.2273 92.9822 30.5454C92.9822 30.8636 92.6469 30.9697 92.1998 30.9697H91.0821L91.4174 30.1212ZM90.8585 31.7121H92.1998C92.6469 31.7121 92.7586 31.8182 92.6469 32.1364C92.5351 32.4545 92.3115 32.6667 91.8645 32.6667H90.5232L90.8585 31.7121ZM91.7527 33.303C92.6469 33.303 93.3175 32.9848 93.541 32.2424C93.7646 31.7121 93.6528 31.3939 93.0939 31.2879C93.541 31.1818 93.8763 30.8636 93.9881 30.4394C94.2116 29.803 93.8763 29.3788 93.0939 29.3788H90.7468L89.4055 33.303H91.7527ZM84.9347 33.303L88.176 30.6515L87.1701 33.303H88.0643L89.5173 29.3788H88.6231L85.4936 32.1364L86.3877 29.3788H85.4936L84.0405 33.303H84.9347ZM79.7933 32.5606C80.3521 32.0303 80.7992 31.1818 81.1345 30.2273H82.6993L81.8051 32.5606H79.7933ZM78.452 34.4697L78.8991 33.303H82.2522L81.9169 34.4697H82.8111L83.4817 32.5606H82.6993L83.9288 29.3788H80.5757C80.2404 30.3333 80.0168 30.9697 79.6815 31.3939C79.458 31.9242 79.1226 32.2424 78.7873 32.5606H78.3403L77.6696 34.4697H78.452ZM74.2048 33.303L74.7636 31.7121H76.8872L76.3284 33.303H77.2226L78.6756 29.3788H77.6696L77.1108 30.9697H75.0989L75.6578 29.3788H74.6518L73.3106 33.303H74.2048ZM68.8398 33.303L72.0811 30.6515L71.0752 33.303H71.9693L73.4224 29.3788H72.5282L69.3986 32.1364L70.2928 29.3788H69.3986L67.9456 33.303H68.8398ZM62.4689 30.9697C62.6924 30.4394 63.363 30.0151 63.9219 30.0151C64.2572 30.0151 64.4807 30.1212 64.7043 30.3333C64.816 30.5454 64.816 30.7576 64.7043 30.9697H62.4689ZM61.4629 31.3939C61.2394 32.0303 61.2394 32.4545 61.5747 32.8788C61.7982 33.303 62.2453 33.4091 62.916 33.4091C63.5866 33.4091 64.1454 33.303 64.5925 33.0909L64.816 32.3485C64.369 32.5606 63.9219 32.6667 63.363 32.6667C62.5806 32.6667 62.1336 32.3485 62.2453 31.6061H65.3749L65.4867 31.3939C65.7102 30.6515 65.7102 30.0151 65.2631 29.5909C65.0396 29.3788 64.7043 29.2727 64.2572 29.2727C63.6983 29.2727 63.0277 29.4848 62.5806 29.9091C62.0218 30.3333 61.5747 30.7576 61.4629 31.3939ZM58.5569 33.4091C59.004 33.4091 59.4511 33.303 59.8982 33.0909L60.2335 32.3485C59.7864 32.5606 59.3393 32.6667 58.8922 32.6667C58.5569 32.6667 58.2216 32.5606 57.9981 32.3485C57.7745 32.0303 57.7745 31.7121 57.8863 31.3939C58.1098 30.9697 58.3334 30.6515 58.6687 30.4394C59.1158 30.2273 59.4511 30.1212 59.8982 30.1212C60.2335 30.1212 60.5688 30.1212 60.9041 30.3333L61.1276 29.5909C60.9041 29.3788 60.457 29.2727 60.0099 29.2727C59.4511 29.2727 58.7804 29.4848 58.2216 29.9091C57.6627 30.2273 57.2157 30.7576 56.9921 31.3939C56.7686 32.0303 56.8804 32.4545 57.1039 32.8788C57.4392 33.303 57.8863 33.4091 58.5569 33.4091ZM53.3037 28.5303H54.8685C55.5391 28.5303 55.7627 28.8485 55.6509 29.2727C55.4273 29.803 54.9803 30.0151 54.3096 30.0151H52.7449L53.3037 28.5303ZM52.5213 30.7576H54.3096C54.9803 30.7576 55.3156 31.0758 55.092 31.6061C54.8685 32.2424 54.3096 32.5606 53.639 32.5606H51.8507L52.5213 30.7576ZM53.5272 33.303C54.0861 33.303 54.6449 33.197 55.092 32.8788C55.5391 32.6667 55.8744 32.2424 56.098 31.8182C56.4333 30.9697 55.9862 30.4394 55.3156 30.2273C55.8744 30.1212 56.3215 29.697 56.545 29.1667C56.8804 28.2121 56.4333 27.7879 55.3156 27.7879H52.6331L50.6212 33.303H53.5272Z" fill="white"/>
<path fill-rule="evenodd" clip-rule="evenodd" d="M188.546 3.5V1.06061H189.663C189.887 1.06061 190.11 1.06061 190.222 1.16667C190.334 1.16667 190.446 1.27273 190.557 1.37879C190.557 1.48485 190.669 1.59091 190.669 1.69697C190.669 1.90909 190.557 2.01515 190.446 2.22727C190.334 2.33333 190.11 2.33333 189.887 2.43939C189.999 2.43939 190.11 2.43939 190.11 2.54545C190.222 2.65152 190.334 2.75758 190.446 2.86364L190.893 3.5H190.446L190.11 2.9697C189.999 2.86364 189.887 2.75758 189.775 2.65152C189.775 2.54545 189.663 2.54545 189.663 2.54545C189.551 2.43939 189.551 2.43939 189.44 2.43939C189.44 2.43939 189.44 2.43939 189.328 2.43939H188.881V3.5H188.546ZM188.881 2.12121H189.663C189.775 2.12121 189.887 2.12121 189.999 2.12121C190.11 2.12121 190.11 2.01515 190.222 1.90909C190.222 1.90909 190.334 1.80303 190.334 1.69697C190.334 1.59091 190.222 1.48485 190.11 1.48485C190.11 1.37879 189.887 1.37879 189.775 1.37879H188.881V2.12121ZM189.551 0C190.222 0 190.781 0.212121 191.228 0.636364C191.675 1.06061 191.899 1.69697 191.899 2.33333C191.899 2.9697 191.675 3.5 191.228 3.92424C190.781 4.34849 190.222 4.56061 189.551 4.56061C188.881 4.56061 188.21 4.34849 187.763 3.92424C187.316 3.5 187.092 2.9697 187.092 2.33333C187.092 1.69697 187.316 1.06061 187.763 0.636364C188.21 0.212121 188.881 0 189.551 0ZM191.004 0.848485C190.557 0.530303 190.11 0.318182 189.551 0.318182C188.881 0.318182 188.434 0.530303 187.987 0.848485C187.651 1.27273 187.428 1.69697 187.428 2.33333C187.428 2.86364 187.651 3.28788 187.987 3.71212C188.434 4.0303 188.881 4.24242 189.551 4.24242C190.11 4.24242 190.557 4.0303 191.004 3.71212C191.34 3.28788 191.563 2.86364 191.563 2.33333C191.563 1.69697 191.34 1.27273 191.004 0.848485ZM27.9315 23.1212C27.9315 23.1212 34.1907 26.8333 44.0265 23.6515C44.0265 23.6515 41.0087 27.7879 33.4083 27.1515C29.161 26.8333 27.9315 23.1212 27.9315 23.1212ZM74.0927 5.19697C74.0927 5.19697 67.8335 1.37879 57.886 4.66667C57.886 4.66667 60.9038 0.424242 68.5042 1.06061C72.7514 1.48485 74.0927 5.19697 74.0927 5.19697ZM42.6852 13.6818C44.1382 10.2879 43.8029 8.59091 42.0146 8.59091H41.6793C40.0027 8.59091 37.432 10.3939 36.4261 13.2576C36.4261 13.2576 33.4083 19.6212 36.7614 19.6212H37.0967C38.9968 19.6212 40.4498 18.7727 42.3499 14.6364L42.6852 13.6818ZM97.4527 8.27273H97.3409C97.3409 8.27273 97.3409 8.27273 97.4527 8.27273ZM42.3499 5.40909C47.9384 5.40909 51.9621 8.80303 50.2856 13.8939L49.8385 15.1667C47.4913 21.3182 42.2381 22.9091 36.4261 22.9091C23.1254 22.9091 29.161 12.6212 29.161 12.6212C33.1847 4.45455 42.3499 5.40909 42.3499 5.40909ZM66.9394 13.6818L66.4923 14.6364C64.704 18.7727 63.1392 19.6212 61.2391 19.6212H60.9038C57.5507 19.6212 60.6802 13.2576 60.6802 13.2576C61.6862 10.3939 64.1451 8.59091 65.8217 8.59091H66.2687C67.9453 8.59091 68.3924 10.2879 66.9394 13.6818ZM66.4923 5.40909C66.4923 5.40909 57.3271 4.45455 53.4152 12.6212C53.4152 12.6212 47.3796 22.9091 60.6802 22.9091C66.3805 22.9091 71.7455 21.3182 74.0927 15.1667L74.428 13.8939C76.1045 8.80303 72.1926 5.40909 66.4923 5.40909ZM104.494 5.40909C111.648 5.51515 112.43 9.75758 110.306 15.5909L107.624 22.9091H104.941C102.706 22.9091 100.135 22.5909 101.812 17.9242L104.494 10.3939C104.941 9.33333 104.606 8.59091 103.153 8.59091C99.9116 8.59091 98.5704 11.9849 98.5704 11.9849L94.5466 22.9091H92.3112C89.8523 22.803 86.9463 22.4849 88.7346 17.9242L91.0818 11.3485C91.7524 9.86364 91.8642 8.59091 89.8523 8.59091C86.4992 8.69697 85.2697 12.0909 85.2697 12.0909L81.3577 22.9091H79.1223C76.8869 22.9091 73.7574 22.803 75.4339 18.1364L77.8929 11.1364C79.3459 7.95455 82.9225 4.98485 91.1935 5.40909C93.4289 5.62121 94.6584 6.25758 95.2173 7.5303C97.3409 6.25758 100.359 5.30303 104.494 5.40909ZM127.407 5.40909C138.919 5.40909 135.79 15.2727 135.566 15.803L132.996 22.9091C132.996 22.9091 128.86 23.1212 127.966 21.3182C125.842 22.2727 123.495 22.9091 120.813 22.9091C118.018 22.9091 115.001 22.5909 113.324 20.8939C109.189 16.6515 115.783 12.197 120.701 12.197C125.731 12.197 125.283 14.8485 125.283 14.8485C121.372 13.7879 119.695 17.5 119.695 17.5C119.695 17.5 118.689 19.7273 121.819 19.7273C126.737 19.7273 128.413 14.4242 128.413 14.4242C128.413 14.4242 130.984 9.54546 125.842 8.80303C119.248 7.84849 114.106 12.0909 114.106 12.0909C116.677 8.27273 122.154 5.40909 127.407 5.40909ZM147.19 19.6212C147.19 19.6212 150.32 19.8333 151.997 18.4545C151.997 18.4545 150.991 22.697 145.626 22.9091C135.343 22.9091 137.914 16.2273 138.696 13.7879L141.714 5.40909H146.855C148.867 5.40909 148.755 6.89394 148.643 7.63636L147.302 11.3485H152.332L151.102 14.7424H146.073C145.29 16.5455 144.508 19.6212 147.19 19.6212ZM164.18 5.40909H166.08L164.515 9.75758H156.803C159.038 5.19697 164.18 5.40909 164.18 5.40909ZM152.108 22.9091L156.244 11.4545H163.844L161.497 18.0303C159.821 22.4849 156.467 22.9091 154.344 22.9091H152.108ZM186.757 7.5303C188.21 9.65152 186.869 13.4697 181.839 13.4697C183.181 12.0909 182.957 10.5 182.957 10.5C182.957 10.5 182.957 8.59091 179.604 8.59091C174.574 8.59091 173.009 13.8939 173.009 13.8939C173.009 13.8939 171.221 19.197 176.139 19.197C182.845 19.197 185.863 16.6515 185.863 16.6515C183.181 20.5758 179.492 22.803 174.127 22.803C165.856 22.803 163.397 18.9849 165.297 14.1061C167.197 9.33333 172.451 5.40909 180.945 5.40909C183.739 5.40909 185.863 6.25758 186.757 7.5303ZM27.4844 9.33333C27.4844 12.0909 24.1313 13.6818 20.6665 13.6818C21.2253 19.4091 26.9256 22.9091 26.9256 22.9091C10.9424 23.0152 13.5131 11.9849 13.5131 11.9849H17.5369C18.8781 11.9849 19.5487 11.3485 19.5487 10.2879C19.5487 8.48485 17.0898 8.59091 17.0898 8.59091H12.9543C12.1719 10.6061 11.166 13.4697 10.0483 16.6515C7.70109 22.9091 0.100708 22.9091 0.100708 22.9091L6.47162 5.40909H18.5428C21.0018 5.40909 27.4844 5.09091 27.4844 9.33333Z" fill="white"/>
</g>
<defs>
<clipPath id="clip0_73_8">
<rect width="192" height="35" fill="white"/>
</clipPath>
</defs>
</svg>
